<svg width="32px" height="32px" viewBox="0 0 32 32" version="1.1" xmlns="http://www.w3.org/2000/svg" xmlns:xlink="http://www.w3.org/1999/xlink">
    <title>SyncPlayer</title>
    <g id="SyncPlayer" stroke="none" stroke-width="1" fill="none" fill-rule="evenodd">
        <g id="IcRoundSync" transform="translate(5.000000, 2.000000)" fill="#FFFFFF" fill-rule="nonzero">
            <path d="M11.6666667,3.05537922 L11.6666667,0.668712551 C11.6666667,0.0687125506 10.9466667,-0.224620783 10.5333333,0.202045884 L6.8,3.92204588 C6.53333333,4.18871255 6.53333333,4.60204588 6.8,4.86871255 L10.52,8.58871255 C10.9466667,9.00204588 11.6666667,8.70871255 11.6666667,8.10871255 L11.6666667,5.72204588 C16.08,5.72204588 19.6666667,9.30871255 19.6666667,13.7220459 C19.6666667,14.7753792 19.4666667,15.8020459 19.08,16.7220459 C18.88,17.2020459 19.0266667,17.7487126 19.3866667,18.1087126 C20.0666667,18.7887126 21.2133333,18.5487126 21.5733333,17.6553792 C22.0666667,16.4420459 22.3333333,15.1087126 22.3333333,13.7220459 C22.3333333,7.82871255 17.56,3.05537922 11.6666667,3.05537922 Z M10.6666667,22.7220459 C6.25333333,22.7220459 2.66666667,19.1353792 2.66666667,14.7220459 C2.66666667,13.6687126 2.86666667,12.6420459 3.25333333,11.7220459 C3.45333333,11.2420459 3.30666667,10.6953792 2.94666667,10.3353792 C2.26666667,9.65537922 1.12,9.89537922 0.76,10.7887126 C0.266666667,12.0020459 0,13.3353792 0,14.7220459 C0,20.6153792 4.77333333,25.3887126 10.6666667,25.3887126 L10.6666667,27.7753792 C10.6666667,28.3753792 11.3866667,28.6687126 11.8,28.2420459 L15.52,24.5220459 C15.7866667,24.2553792 15.7866667,23.8420459 15.52,23.5753792 L11.8,19.8553792 C11.6077974,19.6669739 11.3211586,19.6126204 11.0733263,19.7175847 C10.8254939,19.822549 10.6650857,20.0662401 10.6666667,20.3353792 L10.6666667,22.7220459 Z" id="形状"></path>
        </g>
        <g id="IcRoundPlayCircleOutline" transform="translate(12.666667, 10.999996)" fill="#FFFFFF" fill-rule="nonzero">
            <path d="M1.06666667,10.5333372 L7.29333333,5.86667051 C7.65333333,5.60000384 7.65333333,5.06667051 7.29333333,4.80000384 L1.06666667,0.133337175 C0.864654902,-0.0181716486 0.594380289,-0.0425422953 0.36852427,0.0703857141 C0.142668251,0.183313724 0,0.414155803 0,0.666670508 L0,10 C0,10.5466705 0.626666667,10.8666705 1.06666667,10.5333372 Z" id="形状"></path>
        </g>
    </g>
</svg>